<svg width="288.33" height="95.654" viewBox="0 0 288.33 95.654" xmlns="http://www.w3.org/2000/svg"><g id="svgGroup" stroke-linecap="round" fill-rule="evenodd" font-size="9pt" stroke="#000" stroke-width="0.25mm" fill="#000" style="stroke:#000;stroke-width:0.25mm;fill:#000"><path d="M 12.402 28.711 L 22.754 21.924 A 16.229 16.229 0 0 1 24.088 22.348 Q 25.587 22.889 27.658 23.875 A 83.329 83.329 0 0 1 29.736 24.902 A 27.046 27.046 0 0 1 32.707 26.698 Q 34.148 27.692 35.665 28.963 A 52.03 52.03 0 0 1 37.061 30.176 A 25.486 25.486 0 0 1 41.268 35.489 A 21.996 21.996 0 0 1 43.115 39.502 A 35.741 35.741 0 0 1 44.518 44.298 Q 45.08 46.92 45.115 49.337 A 22.141 22.141 0 0 1 45.117 49.658 L 45.117 49.854 A 28.017 28.017 0 0 1 43.588 58.87 A 32.757 32.757 0 0 1 42.969 60.547 Q 41.475 64.297 39.568 66.599 A 11.622 11.622 0 0 1 37.402 68.652 L 35.693 70.117 L 24.561 77.051 Q 22.243 76.453 19.41 75.11 A 48.706 48.706 0 0 1 17.627 74.219 Q 13.619 72.064 11.019 69.567 A 20.395 20.395 0 0 1 10.352 68.896 A 71.258 71.258 0 0 1 7.715 65.943 Q 5.103 62.836 3.76 60.352 A 17.642 17.642 0 0 1 2.419 55.893 A 24.336 24.336 0 0 1 2.1 51.855 A 27.009 27.009 0 0 1 2.124 50.684 A 20.936 20.936 0 0 1 2.197 49.609 Q 2.62 45.144 2.636 35.475 A 463.944 463.944 0 0 0 2.637 34.717 A 263.793 263.793 0 0 0 2.625 32.155 Q 2.613 30.94 2.589 29.855 A 158.888 158.888 0 0 0 2.588 29.785 A 128.211 128.211 0 0 0 2.047 20.235 Q 1.594 15.525 0.784 11.396 A 73.494 73.494 0 0 0 0.391 9.521 L 0 7.764 A 29.239 29.239 0 0 0 3.335 7.183 A 22.521 22.521 0 0 0 5.957 6.396 A 44.745 44.745 0 0 0 8.346 5.444 Q 10.581 4.472 11.985 3.501 A 11.478 11.478 0 0 0 12.305 3.271 A 112.494 112.494 0 0 0 11.101 11.832 Q 10.262 19.851 10.107 30.078 A 2314.868 2314.868 0 0 0 10.043 34.866 Q 9.961 41.577 9.961 45.459 Q 10.001 47.852 10.008 48.91 A 60.132 60.132 0 0 1 10.01 49.316 A 22.857 22.857 0 0 0 10.218 52.514 Q 10.441 54.089 10.903 55.373 A 9.317 9.317 0 0 0 12.256 57.91 A 15.496 15.496 0 0 0 15.193 61.251 Q 16.644 62.51 18.529 63.637 A 32.455 32.455 0 0 0 20.947 64.941 Q 25.274 67.067 31.224 68.868 A 109.337 109.337 0 0 0 34.766 69.873 A 32.246 32.246 0 0 0 37.106 65.006 A 25.226 25.226 0 0 0 38.33 60.645 A 51.27 51.27 0 0 0 38.916 56.519 A 38.548 38.548 0 0 0 39.111 52.734 Q 39.111 51.025 38.721 49.023 A 23.995 23.995 0 0 0 36.852 43.275 A 20.842 20.842 0 0 0 35.107 40.283 A 17.921 17.921 0 0 0 30.177 35.281 A 23.705 23.705 0 0 0 26.904 33.398 Q 21.582 30.859 12.402 28.711 Z M 134.814 9.277 L 134.521 7.617 A 26.889 26.889 0 0 0 139.686 6.477 A 30.117 30.117 0 0 0 140.43 6.226 A 37.649 37.649 0 0 0 144.571 4.471 A 44.393 44.393 0 0 0 146.484 3.467 L 146.826 3.271 A 169.808 169.808 0 0 0 145.903 10.413 A 204.887 204.887 0 0 0 145.459 14.99 A 206.432 206.432 0 0 0 145.007 21.497 A 257.941 257.941 0 0 0 144.727 28.516 L 155.42 21.875 A 17.589 17.589 0 0 1 156.599 22.217 Q 157.226 22.421 157.922 22.691 A 33.747 33.747 0 0 1 158.569 22.949 A 31.096 31.096 0 0 1 160.746 23.948 A 38.991 38.991 0 0 1 162.305 24.78 A 39.682 39.682 0 0 1 165.025 26.464 A 46.784 46.784 0 0 1 166.284 27.344 A 31.368 31.368 0 0 1 170.093 30.591 A 27.948 27.948 0 0 1 173.34 34.497 Q 174.805 36.621 175.684 39.063 A 28.116 28.116 0 0 1 177.586 46.923 A 33.223 33.223 0 0 1 177.734 49.316 A 343.998 343.998 0 0 0 177.945 54.412 Q 178.044 56.431 178.162 58.276 A 196.229 196.229 0 0 0 178.418 61.792 Q 178.75 65.833 179.222 68.912 A 58.977 58.977 0 0 0 179.541 70.801 L 179.932 72.559 A 27.24 27.24 0 0 0 176.237 73.252 A 25.085 25.085 0 0 0 176.001 73.315 A 34.51 34.51 0 0 0 173.766 74.004 A 28.335 28.335 0 0 0 172.534 74.463 A 31.648 31.648 0 0 0 171.027 75.11 A 24.519 24.519 0 0 0 169.678 75.781 A 23.678 23.678 0 0 0 168.811 76.27 Q 168.423 76.501 168.097 76.719 A 10.689 10.689 0 0 0 167.627 77.051 A 171.862 171.862 0 0 0 169.464 56.81 A 153.312 153.312 0 0 0 169.531 52.295 A 1912.498 1912.498 0 0 1 169.445 50.423 Q 169.405 49.543 169.37 48.758 A 1132.417 1132.417 0 0 1 169.36 48.535 A 42.844 42.844 0 0 0 169.263 46.954 A 31.508 31.508 0 0 0 169.116 45.532 A 18.145 18.145 0 0 0 168.885 44.137 A 14.08 14.08 0 0 0 168.628 43.091 Q 168.311 41.992 167.725 41.016 A 20.594 20.594 0 0 0 164.478 37.256 A 17.434 17.434 0 0 0 162.291 35.582 A 23.425 23.425 0 0 0 159.961 34.253 A 34.475 34.475 0 0 0 157.419 33.115 Q 156.102 32.585 154.606 32.089 A 58.636 58.636 0 0 0 153.589 31.763 Q 149.902 30.615 144.775 29.541 L 144.727 29.541 Q 144.678 31.348 144.653 33.179 A 276.52 276.52 0 0 0 144.629 36.865 L 144.629 38.574 Q 144.678 50.342 145.068 58.35 Q 145.459 66.357 146.436 70.801 L 146.826 72.559 A 27.667 27.667 0 0 0 143.68 73.104 A 24.55 24.55 0 0 0 142.847 73.315 A 34.51 34.51 0 0 0 140.611 74.004 A 28.335 28.335 0 0 0 139.38 74.463 A 29.674 29.674 0 0 0 137.878 75.11 A 22.478 22.478 0 0 0 136.548 75.781 Q 135.619 76.291 134.948 76.747 A 11.218 11.218 0 0 0 134.521 77.051 Q 135.596 69.678 136.108 61.523 A 261.996 261.996 0 0 0 136.571 49.85 A 309.219 309.219 0 0 0 136.621 44.238 Q 136.573 31.424 136.114 22.711 A 243.269 243.269 0 0 0 136.108 22.607 Q 135.726 15.404 135.095 11.019 A 49.255 49.255 0 0 0 134.814 9.277 Z M 113.77 70.215 L 103.125 77.344 A 696.842 696.842 0 0 0 99.414 75.806 A 540.255 540.255 0 0 0 95.996 74.414 A 28.587 28.587 0 0 1 92.295 72.645 A 31.541 31.541 0 0 1 92.017 72.485 Q 90.039 71.338 88.281 70.02 A 30.624 30.624 0 0 1 85.849 67.998 A 26.684 26.684 0 0 1 85.107 67.285 A 16.603 16.603 0 0 1 83.847 65.88 A 12.29 12.29 0 0 1 82.861 64.453 L 91.602 58.984 A 2.57 2.57 0 0 0 91.81 59.756 Q 92.089 60.403 92.726 61.14 A 9.407 9.407 0 0 0 92.871 61.304 A 8.413 8.413 0 0 0 93.793 62.166 Q 94.892 63.062 96.631 64.014 Q 98.51 65.042 101.2 66.083 A 68.58 68.58 0 0 0 103.345 66.87 A 59.679 59.679 0 0 0 106.71 67.926 Q 108.605 68.464 110.793 68.976 A 122.11 122.11 0 0 0 113.525 69.58 Q 115.578 66.079 115.939 62.909 A 11.813 11.813 0 0 0 116.016 61.572 A 6.573 6.573 0 0 0 115.291 58.43 Q 113.99 55.991 110.348 54.937 A 14.798 14.798 0 0 0 110.156 54.883 L 108.936 54.541 A 50.586 50.586 0 0 0 107.883 54.37 Q 107.161 54.26 106.323 54.15 Q 104.834 53.955 103.027 53.711 A 68.142 68.142 0 0 1 98.727 53.04 Q 96.634 52.641 94.796 52.133 A 41.607 41.607 0 0 1 94.678 52.1 A 29.191 29.191 0 0 1 91.688 51.095 Q 90.156 50.48 88.885 49.735 A 17.179 17.179 0 0 1 88.477 49.487 A 14.051 14.051 0 0 1 86.126 47.665 A 11.285 11.285 0 0 1 84.521 45.728 A 9.656 9.656 0 0 1 83.071 41.815 A 11.962 11.962 0 0 1 82.959 40.674 A 14.236 14.236 0 0 1 83.17 38.962 A 11.578 11.578 0 0 1 83.423 37.891 A 10.455 10.455 0 0 1 83.837 36.733 Q 84.081 36.152 84.413 35.528 A 18.736 18.736 0 0 1 84.644 35.107 A 14.789 14.789 0 0 1 85.65 33.57 Q 86.23 32.788 86.963 31.982 Q 88.222 30.598 90.094 29.105 A 40.721 40.721 0 0 1 90.723 28.613 L 101.074 21.826 A 274.11 274.11 0 0 1 103.647 22.884 Q 104.662 23.307 105.581 23.702 A 151.496 151.496 0 0 1 107.324 24.463 A 51.151 51.151 0 0 1 109.784 25.632 A 37.172 37.172 0 0 1 111.963 26.831 A 27.471 27.471 0 0 1 114.294 28.384 A 22.818 22.818 0 0 1 115.527 29.37 A 27.565 27.565 0 0 1 117.629 31.387 A 32.979 32.979 0 0 1 118.604 32.471 L 110.059 37.646 Q 108.784 36.116 106.693 34.45 A 40.714 40.714 0 0 0 105.176 33.301 A 11.88 11.88 0 0 0 103.066 32.162 Q 99.167 30.473 91.016 29.004 L 90.967 29.053 A 8.875 8.875 0 0 0 89.771 30.717 A 11.63 11.63 0 0 0 89.111 32.104 A 10.31 10.31 0 0 0 88.425 35.057 A 12.415 12.415 0 0 0 88.379 36.133 A 5.101 5.101 0 0 0 88.67 37.885 A 4.493 4.493 0 0 0 89.795 39.6 A 9.547 9.547 0 0 0 91.621 40.966 A 13.087 13.087 0 0 0 93.457 41.846 A 24.103 24.103 0 0 0 96.385 42.772 A 30.24 30.24 0 0 0 98.462 43.213 A 118.046 118.046 0 0 0 103.857 44.043 Q 114.395 45.16 118.799 48.919 A 8.886 8.886 0 0 1 121.338 52.344 A 12.219 12.219 0 0 1 122.314 57.178 A 10.887 10.887 0 0 1 122.07 59.448 A 8.526 8.526 0 0 1 121.773 60.494 Q 121.588 61.019 121.326 61.583 A 15.011 15.011 0 0 1 121.143 61.963 Q 120.555 63.138 119.553 64.493 A 26.578 26.578 0 0 1 119.214 64.941 A 28.319 28.319 0 0 1 118.174 66.205 Q 117.576 66.891 116.864 67.638 A 55.873 55.873 0 0 1 115.967 68.555 A 4.468 4.468 0 0 1 115.695 68.801 Q 115.105 69.299 113.77 70.215 Z M 245.02 27.881 L 244.727 26.221 A 26.889 26.889 0 0 0 249.891 25.08 A 30.117 30.117 0 0 0 250.635 24.829 A 35.652 35.652 0 0 0 253.723 23.566 Q 255.322 22.827 257.031 21.875 A 81.767 81.767 0 0 0 256.592 24.854 A 781.544 781.544 0 0 0 256.201 27.93 L 265.967 21.875 Q 267.432 22.266 269.36 23.071 A 38.18 38.18 0 0 1 272.527 24.574 A 43.044 43.044 0 0 1 273.267 24.976 A 41.603 41.603 0 0 1 277.075 27.368 Q 278.906 28.662 280.176 30.029 A 38.938 38.938 0 0 1 283.499 34.117 A 36.003 36.003 0 0 1 283.594 34.253 Q 285.107 36.426 286.182 38.818 A 23.87 23.87 0 0 1 287.793 43.848 A 26.832 26.832 0 0 1 288.278 47.658 A 32.146 32.146 0 0 1 288.33 49.512 Q 288.068 51.979 287.764 53.917 A 54.563 54.563 0 0 1 287.573 55.054 A 25.321 25.321 0 0 1 286.8 58.224 A 21.983 21.983 0 0 1 286.401 59.375 A 21.593 21.593 0 0 1 284.921 62.488 A 24.791 24.791 0 0 1 284.399 63.354 Q 283.446 64.869 282.021 66.712 A 70.13 70.13 0 0 1 281.104 67.871 Q 280.648 68.418 279.979 69.008 A 14.939 14.939 0 0 1 279.883 69.092 A 45.873 45.873 0 0 1 279.195 69.675 Q 278.841 69.97 278.444 70.291 A 78.193 78.193 0 0 1 278.174 70.508 L 267.822 77.051 A 14.123 14.123 0 0 1 266.12 76.641 Q 265.249 76.378 264.265 75.986 A 35.562 35.562 0 0 1 262.183 75.073 Q 259.053 73.589 255.689 70.886 A 47.48 47.48 0 0 1 255.225 70.508 A 232.302 232.302 0 0 0 255.811 79.932 A 388.462 388.462 0 0 0 256.738 89.648 L 257.031 91.162 L 257.031 91.309 A 26.802 26.802 0 0 0 251.099 92.7 Q 248.237 93.717 244.941 95.536 A 58.235 58.235 0 0 0 244.727 95.654 Q 245.801 88.281 246.313 80.127 A 261.996 261.996 0 0 0 246.776 68.453 A 309.219 309.219 0 0 0 246.826 62.842 Q 246.778 50.027 246.319 41.314 A 243.269 243.269 0 0 0 246.313 41.211 Q 245.931 34.007 245.3 29.623 A 49.255 49.255 0 0 0 245.02 27.881 Z M 223.193 70.313 L 212.061 77.246 A 21.95 21.95 0 0 1 209.725 76.509 Q 207.637 75.73 205.127 74.414 A 32.864 32.864 0 0 1 197.803 69.092 A 26.253 26.253 0 0 1 194.153 64.758 A 21.004 21.004 0 0 1 191.797 60.059 Q 189.697 55.078 189.697 49.805 L 189.697 49.609 A 25.226 25.226 0 0 1 190.728 42.605 A 32.107 32.107 0 0 1 192.09 38.818 A 27.87 27.87 0 0 1 194.713 34.007 A 23.318 23.318 0 0 1 196.924 31.25 A 22.337 22.337 0 0 1 199.854 28.613 L 210.205 21.826 A 16.229 16.229 0 0 1 211.539 22.25 Q 213.038 22.792 215.109 23.777 A 83.329 83.329 0 0 1 217.187 24.805 Q 220.057 26.281 223.237 28.996 A 50.631 50.631 0 0 1 224.463 30.078 Q 228.809 34.277 230.566 39.404 Q 232.503 44.827 232.567 49.482 A 23.221 23.221 0 0 1 232.568 49.561 L 232.568 49.756 A 34.395 34.395 0 0 1 232.337 53.878 Q 231.863 57.792 230.42 60.449 Q 227.956 64.979 226.083 67.25 A 11.866 11.866 0 0 1 224.854 68.555 A 19.388 19.388 0 0 0 224.292 69.067 Q 223.523 69.8 223.193 70.313 Z M 58.35 27.002 L 58.105 26.221 A 26.802 26.802 0 0 0 64.038 24.829 Q 66.992 23.779 70.068 22.07 L 70.41 21.875 A 49.625 49.625 0 0 0 69.123 27.798 Q 67.969 35.022 67.969 45.361 L 67.969 47.07 Q 67.969 60.791 70.02 70.801 L 70.41 72.559 A 27.667 27.667 0 0 0 67.264 73.104 A 24.55 24.55 0 0 0 66.431 73.315 A 34.51 34.51 0 0 0 64.195 74.004 A 28.335 28.335 0 0 0 62.964 74.463 A 29.674 29.674 0 0 0 61.462 75.11 A 22.478 22.478 0 0 0 60.132 75.781 Q 59.203 76.291 58.532 76.747 A 11.218 11.218 0 0 0 58.105 77.051 A 326.803 326.803 0 0 0 58.917 70.013 A 240.09 240.09 0 0 0 59.497 63.647 Q 59.961 57.617 59.961 52.734 Q 59.961 48.779 59.888 45.337 A 164.571 164.571 0 0 0 59.719 40.565 A 140.885 140.885 0 0 0 59.619 38.794 A 130.024 130.024 0 0 0 59.184 33.536 A 117.095 117.095 0 0 0 59.106 32.812 A 149.63 149.63 0 0 0 58.35 27.002 Z M 200.146 29.004 L 200.098 29.053 A 17.915 17.915 0 0 0 199.309 30.761 Q 198.241 33.385 197.07 37.891 A 37.338 37.338 0 0 0 196.191 42.188 A 28.65 28.65 0 0 0 195.898 46.191 Q 195.898 47.705 196.143 49.365 A 18.661 18.661 0 0 0 197.591 54.228 A 25.881 25.881 0 0 0 199.756 58.105 A 19.541 19.541 0 0 0 207.849 65.021 A 23.371 23.371 0 0 0 208.203 65.186 A 43.219 43.219 0 0 0 211.771 66.606 Q 216.162 68.152 222.607 69.629 L 222.656 69.58 A 19.829 19.829 0 0 0 223.27 67.987 Q 224.187 65.313 225.33 60.388 A 182.267 182.267 0 0 0 225.439 59.912 Q 226.416 55.664 226.416 52.197 A 24.065 24.065 0 0 0 226.369 50.658 Q 226.32 49.898 226.221 49.229 A 13.674 13.674 0 0 0 226.172 48.926 A 20.57 20.57 0 0 0 224.668 44.045 A 27.874 27.874 0 0 0 222.559 40.186 A 14.637 14.637 0 0 0 220.388 37.614 Q 218.021 35.344 214.111 33.154 Q 209.553 30.596 201.007 29.146 A 88.203 88.203 0 0 0 200.146 29.004 Z M 254.834 52.246 L 255.029 55.225 Q 257.471 61.865 263.721 65.82 A 16.711 16.711 0 0 0 266.479 67.226 Q 269.485 68.46 274.142 69.427 A 90.798 90.798 0 0 0 277.881 70.117 L 277.93 70.068 A 12.328 12.328 0 0 0 278.224 69.465 Q 278.499 68.864 278.834 68.013 A 55.597 55.597 0 0 0 279.15 67.187 A 43.425 43.425 0 0 0 279.865 65.118 A 57.151 57.151 0 0 0 280.542 62.817 A 56.65 56.65 0 0 0 281.606 58.114 A 61.803 61.803 0 0 0 281.665 57.788 A 31.258 31.258 0 0 0 282.034 55.04 A 24.329 24.329 0 0 0 282.129 52.93 A 18.825 18.825 0 0 0 281.783 49.402 A 22.713 22.713 0 0 0 281.396 47.729 A 21.764 21.764 0 0 0 279.221 42.536 A 24.079 24.079 0 0 0 279.175 42.456 A 21.283 21.283 0 0 0 276.207 38.516 A 24.362 24.362 0 0 0 275.366 37.671 Q 273.047 35.449 269.824 33.936 A 35.085 35.085 0 0 0 267.707 33.031 Q 266.556 32.581 265.231 32.139 A 66.998 66.998 0 0 0 263.989 31.738 Q 260.547 30.664 256.006 29.639 A 211.874 211.874 0 0 0 255.219 39.943 Q 254.929 45.387 254.844 51.437 A 345.802 345.802 0 0 0 254.834 52.246 Z M 57.861 5.566 L 57.568 4.541 A 29.174 29.174 0 0 0 65.499 2.546 A 37.821 37.821 0 0 0 70.313 0.195 L 70.654 0 Q 69.949 2.514 69.88 6.981 A 64.081 64.081 0 0 0 69.873 7.959 A 35.37 35.37 0 0 0 69.904 9.393 A 46.47 46.47 0 0 0 69.995 10.962 A 63.41 63.41 0 0 0 70.148 12.677 A 83.322 83.322 0 0 0 70.361 14.551 A 30.603 30.603 0 0 0 66.382 15.308 A 36.92 36.92 0 0 0 63.609 16.14 A 31.939 31.939 0 0 0 62.671 16.479 A 31.623 31.623 0 0 0 60.829 17.244 A 24.676 24.676 0 0 0 59.546 17.871 A 26.994 26.994 0 0 0 58.574 18.407 Q 58.129 18.665 57.755 18.91 A 12.507 12.507 0 0 0 57.275 19.238 A 36.62 36.62 0 0 0 58.189 11.932 A 40.955 40.955 0 0 0 58.203 10.84 Q 58.203 9.521 58.13 8.203 A 28.936 28.936 0 0 0 57.861 5.566 Z" vector-effect="non-scaling-stroke"/></g></svg>