<svg width="178.369" height="95.361" viewBox="0 0 178.369 95.361" xmlns="http://www.w3.org/2000/svg"><g id="svgGroup" stroke-linecap="round" fill-rule="evenodd" font-size="9pt" stroke="#000" stroke-width="0.25mm" fill="#000" style="stroke:#000;stroke-width:0.25mm;fill:#000"><path d="M 178.369 69.238 L 176.855 72.998 A 25.455 25.455 0 0 1 175.228 76.047 Q 174.283 77.579 173.018 79.258 A 65.44 65.44 0 0 1 170.166 82.764 Q 167.772 85.521 165.62 87.28 A 21.41 21.41 0 0 1 164.16 88.379 L 153.32 95.361 Q 148.73 93.604 148.096 93.262 A 18.417 18.417 0 0 1 146.331 92.166 Q 144.231 90.708 141.504 88.184 A 32.457 32.457 0 0 1 138.752 85.065 A 29.999 29.999 0 0 1 138.672 84.961 L 147.51 80.566 L 151.807 84.57 A 13.272 13.272 0 0 0 158.011 87.801 A 19.787 19.787 0 0 0 162.5 88.281 L 163.525 88.281 L 163.623 88.232 Q 166.585 85.872 168.319 76.666 A 75.061 75.061 0 0 0 168.506 75.635 A 66.472 66.472 0 0 0 168.915 72.921 Q 169.079 71.643 169.161 70.529 A 29.592 29.592 0 0 0 169.238 68.896 A 3210.652 3210.652 0 0 0 169.299 64.455 Q 169.385 57.796 169.385 55.029 L 169.385 53.613 Q 169.345 51.18 169.338 50.083 A 65.03 65.03 0 0 1 169.336 49.658 A 22.857 22.857 0 0 0 169.127 46.461 Q 168.904 44.886 168.443 43.602 A 9.317 9.317 0 0 0 167.09 41.064 A 20.007 20.007 0 0 0 158.643 33.984 A 57.272 57.272 0 0 0 155.087 32.5 Q 151.044 30.957 145.392 29.333 A 193.87 193.87 0 0 0 144.58 29.102 A 32.246 32.246 0 0 0 142.239 33.969 A 25.226 25.226 0 0 0 141.016 38.33 A 51.27 51.27 0 0 0 140.43 42.456 A 38.548 38.548 0 0 0 140.234 46.24 Q 140.234 47.949 140.625 49.951 A 24.203 24.203 0 0 0 142.622 55.983 A 21.373 21.373 0 0 0 144.238 58.74 A 18.114 18.114 0 0 0 148.747 63.379 A 24.445 24.445 0 0 0 152.441 65.576 A 43.091 43.091 0 0 0 156.124 67.125 Q 160.599 68.787 166.943 70.264 L 156.592 77.051 Q 154.862 76.609 151.772 75.14 A 85.628 85.628 0 0 1 149.609 74.072 A 25.568 25.568 0 0 1 146.775 72.377 Q 145.437 71.464 144.017 70.294 A 51.683 51.683 0 0 1 142.285 68.799 A 25.486 25.486 0 0 1 138.078 63.485 A 21.996 21.996 0 0 1 136.23 59.473 A 34.634 34.634 0 0 1 134.729 54.15 A 26.465 26.465 0 0 1 134.229 49.121 A 28.017 28.017 0 0 1 135.758 40.105 A 32.757 32.757 0 0 1 136.377 38.428 Q 137.871 34.678 139.778 32.375 A 11.622 11.622 0 0 1 141.943 30.322 L 143.652 28.857 L 154.785 21.924 A 26.629 26.629 0 0 1 158.855 23.363 A 34.029 34.029 0 0 1 161.719 24.805 Q 164.893 26.611 168.994 30.078 Q 175.244 35.352 177.002 38.965 L 177.148 49.365 Q 177.49 62.207 177.93 65.674 Q 178.369 69.141 178.369 69.238 Z M 0.293 9.277 L 0 7.617 A 26.889 26.889 0 0 0 5.164 6.477 A 30.117 30.117 0 0 0 5.908 6.226 A 35.652 35.652 0 0 0 8.997 4.962 Q 10.596 4.224 12.305 3.271 A 157.842 157.842 0 0 0 10.966 14.496 Q 10.107 24.536 10.107 36.865 L 10.107 38.574 L 10.107 42.896 A 162.203 162.203 0 0 0 10.15 46.679 A 148.298 148.298 0 0 0 10.156 46.924 Q 10.741 46.384 12.091 45.079 A 414.152 414.152 0 0 0 12.329 44.849 Q 13.867 43.359 15.894 41.284 A 416.652 416.652 0 0 0 17.999 39.111 A 529.101 529.101 0 0 0 20.264 36.743 Q 22.607 34.277 24.878 31.763 A 178.332 178.332 0 0 0 28.133 28.059 A 157.439 157.439 0 0 0 29.15 26.855 A 97.074 97.074 0 0 0 30.563 25.13 Q 31.321 24.18 31.961 23.321 A 52.313 52.313 0 0 0 32.52 22.559 L 33.008 21.875 A 25.704 25.704 0 0 0 34.909 23.508 A 20.151 20.151 0 0 0 36.401 24.561 A 23.711 23.711 0 0 0 37.399 25.165 Q 38.437 25.757 39.209 26.025 A 67.285 67.285 0 0 0 36.243 28.319 Q 33.073 30.9 28.854 34.796 A 294.997 294.997 0 0 0 26.172 37.305 L 21.289 42.139 Q 27.783 57.666 43.701 72.9 A 26.802 26.802 0 0 0 37.769 74.292 Q 34.907 75.309 31.61 77.127 A 58.235 58.235 0 0 0 31.396 77.246 Q 24.268 59.424 15.479 48.535 A 55.866 55.866 0 0 0 13.435 51.167 Q 11.455 53.892 10.481 56.081 A 16.235 16.235 0 0 0 10.449 56.152 Q 10.617 59.509 10.831 62.278 A 145.642 145.642 0 0 0 11.035 64.673 A 73.989 73.989 0 0 0 11.319 67.24 Q 11.479 68.477 11.668 69.543 A 34.788 34.788 0 0 0 11.914 70.801 L 12.305 72.559 A 27.667 27.667 0 0 0 9.158 73.104 A 24.55 24.55 0 0 0 8.325 73.315 A 34.51 34.51 0 0 0 6.09 74.004 A 28.335 28.335 0 0 0 4.858 74.463 A 29.674 29.674 0 0 0 3.357 75.11 A 22.478 22.478 0 0 0 2.026 75.781 Q 1.097 76.291 0.427 76.747 A 11.218 11.218 0 0 0 0 77.051 Q 1.074 69.678 1.587 61.523 A 261.996 261.996 0 0 0 2.05 49.85 A 309.219 309.219 0 0 0 2.1 44.238 Q 2.051 31.424 1.592 22.711 A 243.269 243.269 0 0 0 1.587 22.607 Q 1.205 15.404 0.573 11.019 A 49.255 49.255 0 0 0 0.293 9.277 Z M 79.297 27.002 L 79.053 26.221 A 28.627 28.627 0 0 0 86.495 24.279 A 36.97 36.97 0 0 0 91.016 22.07 L 91.357 21.875 Q 90.518 24.351 89.571 27.476 A 263.99 263.99 0 0 0 89.258 28.516 L 99.951 21.875 A 22.223 22.223 0 0 1 102.02 22.54 Q 103.082 22.935 104.286 23.476 A 56.499 56.499 0 0 1 106.836 24.707 A 31.43 31.43 0 0 1 111.934 28.083 A 37.778 37.778 0 0 1 114.16 30.029 Q 118.457 34.131 120.215 39.063 A 28.116 28.116 0 0 1 122.117 46.923 A 33.223 33.223 0 0 1 122.266 49.316 A 293.168 293.168 0 0 0 122.543 55.988 Q 122.928 63.128 123.616 67.998 A 62.9 62.9 0 0 0 124.072 70.801 L 124.463 72.559 A 29.312 29.312 0 0 0 120.968 73.183 A 23.67 23.67 0 0 0 118.506 73.926 A 44.745 44.745 0 0 0 116.117 74.878 Q 113.882 75.85 112.478 76.822 A 11.478 11.478 0 0 0 112.158 77.051 A 171.862 171.862 0 0 0 113.996 56.81 A 153.312 153.312 0 0 0 114.063 52.295 Q 114.014 50.732 114.014 49.512 A 28.733 28.733 0 0 0 113.859 46.419 Q 113.518 43.279 112.425 41.307 A 8.04 8.04 0 0 0 112.256 41.016 A 19.644 19.644 0 0 0 107.582 36.249 A 26.432 26.432 0 0 0 103.76 33.936 A 32.652 32.652 0 0 0 100.25 32.457 Q 95.886 30.884 89.307 29.541 L 89.258 29.541 Q 88.979 32.453 88.927 41.165 A 717.746 717.746 0 0 0 88.916 45.361 L 88.916 47.07 Q 88.916 60.791 90.967 70.801 L 91.357 72.559 A 29.239 29.239 0 0 0 88.023 73.139 A 22.521 22.521 0 0 0 85.4 73.926 A 44.745 44.745 0 0 0 83.011 74.878 Q 80.776 75.85 79.372 76.822 A 11.478 11.478 0 0 0 79.053 77.051 A 297.702 297.702 0 0 0 80.109 67.568 Q 80.509 63.324 80.708 59.615 A 128.502 128.502 0 0 0 80.908 52.734 Q 80.908 47.9 80.859 47.461 A 160.543 160.543 0 0 0 80.432 36.818 A 116.694 116.694 0 0 0 79.297 27.002 Z M 52.1 27.002 L 51.855 26.221 A 26.802 26.802 0 0 0 57.788 24.829 Q 60.742 23.779 63.818 22.07 L 64.16 21.875 A 49.625 49.625 0 0 0 62.873 27.798 Q 61.719 35.022 61.719 45.361 L 61.719 47.07 Q 61.719 60.791 63.77 70.801 L 64.16 72.559 A 27.667 27.667 0 0 0 61.014 73.104 A 24.55 24.55 0 0 0 60.181 73.315 A 34.51 34.51 0 0 0 57.945 74.004 A 28.335 28.335 0 0 0 56.714 74.463 A 29.674 29.674 0 0 0 55.212 75.11 A 22.478 22.478 0 0 0 53.882 75.781 Q 52.953 76.291 52.282 76.747 A 11.218 11.218 0 0 0 51.855 77.051 A 326.803 326.803 0 0 0 52.667 70.013 A 240.09 240.09 0 0 0 53.247 63.647 Q 53.711 57.617 53.711 52.734 Q 53.711 48.779 53.638 45.337 A 164.571 164.571 0 0 0 53.469 40.565 A 140.885 140.885 0 0 0 53.369 38.794 A 130.024 130.024 0 0 0 52.934 33.536 A 117.095 117.095 0 0 0 52.856 32.812 A 149.63 149.63 0 0 0 52.1 27.002 Z M 51.611 5.566 L 51.318 4.541 A 29.174 29.174 0 0 0 59.249 2.546 A 37.821 37.821 0 0 0 64.063 0.195 L 64.404 0 Q 63.699 2.514 63.63 6.981 A 64.081 64.081 0 0 0 63.623 7.959 A 35.37 35.37 0 0 0 63.654 9.393 A 46.47 46.47 0 0 0 63.745 10.962 A 63.41 63.41 0 0 0 63.898 12.677 A 83.322 83.322 0 0 0 64.111 14.551 A 30.603 30.603 0 0 0 60.132 15.308 A 36.92 36.92 0 0 0 57.359 16.14 A 31.939 31.939 0 0 0 56.421 16.479 A 31.623 31.623 0 0 0 54.579 17.244 A 24.676 24.676 0 0 0 53.296 17.871 A 26.994 26.994 0 0 0 52.324 18.407 Q 51.879 18.665 51.505 18.91 A 12.507 12.507 0 0 0 51.025 19.238 A 36.62 36.62 0 0 0 51.939 11.932 A 40.955 40.955 0 0 0 51.953 10.84 Q 51.953 9.521 51.88 8.203 A 28.936 28.936 0 0 0 51.611 5.566 Z" vector-effect="non-scaling-stroke"/></g></svg>