<svg width="275.098" height="95.361" viewBox="0 0 275.098 95.361" xmlns="http://www.w3.org/2000/svg"><g id="svgGroup" stroke-linecap="round" fill-rule="evenodd" font-size="9pt" stroke="#000" stroke-width="0.25mm" fill="#000" style="stroke:#000;stroke-width:0.25mm;fill:#000"><path d="M 178.369 69.238 L 176.855 72.998 A 25.455 25.455 0 0 1 175.228 76.047 Q 174.283 77.579 173.018 79.258 A 65.44 65.44 0 0 1 170.166 82.764 Q 167.772 85.521 165.62 87.28 A 21.41 21.41 0 0 1 164.16 88.379 L 153.32 95.361 Q 148.73 93.604 148.096 93.262 A 18.417 18.417 0 0 1 146.331 92.166 Q 144.231 90.708 141.504 88.184 A 32.457 32.457 0 0 1 138.752 85.065 A 29.999 29.999 0 0 1 138.672 84.961 L 147.51 80.566 L 151.807 84.57 A 13.272 13.272 0 0 0 158.011 87.801 A 19.787 19.787 0 0 0 162.5 88.281 L 163.525 88.281 L 163.623 88.232 Q 166.585 85.872 168.319 76.666 A 75.061 75.061 0 0 0 168.506 75.635 A 66.472 66.472 0 0 0 168.915 72.921 Q 169.079 71.643 169.161 70.529 A 29.592 29.592 0 0 0 169.238 68.896 A 3210.652 3210.652 0 0 0 169.299 64.455 Q 169.385 57.796 169.385 55.029 L 169.385 53.613 Q 169.345 51.18 169.338 50.083 A 65.03 65.03 0 0 1 169.336 49.658 A 22.857 22.857 0 0 0 169.127 46.461 Q 168.904 44.886 168.443 43.602 A 9.317 9.317 0 0 0 167.09 41.064 A 20.007 20.007 0 0 0 158.643 33.984 A 57.272 57.272 0 0 0 155.087 32.5 Q 151.044 30.957 145.392 29.333 A 193.87 193.87 0 0 0 144.58 29.102 A 32.246 32.246 0 0 0 142.239 33.969 A 25.226 25.226 0 0 0 141.016 38.33 A 51.27 51.27 0 0 0 140.43 42.456 A 38.548 38.548 0 0 0 140.234 46.24 Q 140.234 47.949 140.625 49.951 A 24.203 24.203 0 0 0 142.622 55.983 A 21.373 21.373 0 0 0 144.238 58.74 A 18.114 18.114 0 0 0 148.747 63.379 A 24.445 24.445 0 0 0 152.441 65.576 A 43.091 43.091 0 0 0 156.124 67.125 Q 160.599 68.787 166.943 70.264 L 156.592 77.051 Q 154.862 76.609 151.772 75.14 A 85.628 85.628 0 0 1 149.609 74.072 A 25.568 25.568 0 0 1 146.775 72.377 Q 145.437 71.464 144.017 70.294 A 51.683 51.683 0 0 1 142.285 68.799 A 25.486 25.486 0 0 1 138.078 63.485 A 21.996 21.996 0 0 1 136.23 59.473 A 34.634 34.634 0 0 1 134.729 54.15 A 26.465 26.465 0 0 1 134.229 49.121 A 28.017 28.017 0 0 1 135.758 40.105 A 32.757 32.757 0 0 1 136.377 38.428 Q 137.871 34.678 139.778 32.375 A 11.622 11.622 0 0 1 141.943 30.322 L 143.652 28.857 L 154.785 21.924 A 26.629 26.629 0 0 1 158.855 23.363 A 34.029 34.029 0 0 1 161.719 24.805 Q 164.893 26.611 168.994 30.078 Q 175.244 35.352 177.002 38.965 L 177.148 49.365 Q 177.49 62.207 177.93 65.674 Q 178.369 69.141 178.369 69.238 Z M 0.293 9.277 L 0 7.617 A 26.889 26.889 0 0 0 5.164 6.477 A 30.117 30.117 0 0 0 5.908 6.226 A 35.652 35.652 0 0 0 8.997 4.962 Q 10.596 4.224 12.305 3.271 A 157.842 157.842 0 0 0 10.966 14.496 Q 10.107 24.536 10.107 36.865 L 10.107 38.574 L 10.107 42.896 A 162.203 162.203 0 0 0 10.15 46.679 A 148.298 148.298 0 0 0 10.156 46.924 Q 10.741 46.384 12.091 45.079 A 414.152 414.152 0 0 0 12.329 44.849 Q 13.867 43.359 15.894 41.284 A 416.652 416.652 0 0 0 17.999 39.111 A 529.101 529.101 0 0 0 20.264 36.743 Q 22.607 34.277 24.878 31.763 A 178.332 178.332 0 0 0 28.133 28.059 A 157.439 157.439 0 0 0 29.15 26.855 A 97.074 97.074 0 0 0 30.563 25.13 Q 31.321 24.18 31.961 23.321 A 52.313 52.313 0 0 0 32.52 22.559 L 33.008 21.875 A 25.704 25.704 0 0 0 34.909 23.508 A 20.151 20.151 0 0 0 36.401 24.561 A 23.711 23.711 0 0 0 37.399 25.165 Q 38.437 25.757 39.209 26.025 A 67.285 67.285 0 0 0 36.243 28.319 Q 33.073 30.9 28.854 34.796 A 294.997 294.997 0 0 0 26.172 37.305 L 21.289 42.139 Q 27.783 57.666 43.701 72.9 A 26.802 26.802 0 0 0 37.769 74.292 Q 34.907 75.309 31.61 77.127 A 58.235 58.235 0 0 0 31.396 77.246 Q 24.268 59.424 15.479 48.535 A 55.866 55.866 0 0 0 13.435 51.167 Q 11.455 53.892 10.481 56.081 A 16.235 16.235 0 0 0 10.449 56.152 Q 10.617 59.509 10.831 62.278 A 145.642 145.642 0 0 0 11.035 64.673 A 73.989 73.989 0 0 0 11.319 67.24 Q 11.479 68.477 11.668 69.543 A 34.788 34.788 0 0 0 11.914 70.801 L 12.305 72.559 A 27.667 27.667 0 0 0 9.158 73.104 A 24.55 24.55 0 0 0 8.325 73.315 A 34.51 34.51 0 0 0 6.09 74.004 A 28.335 28.335 0 0 0 4.858 74.463 A 29.674 29.674 0 0 0 3.357 75.11 A 22.478 22.478 0 0 0 2.026 75.781 Q 1.097 76.291 0.427 76.747 A 11.218 11.218 0 0 0 0 77.051 Q 1.074 69.678 1.587 61.523 A 261.996 261.996 0 0 0 2.05 49.85 A 309.219 309.219 0 0 0 2.1 44.238 Q 2.051 31.424 1.592 22.711 A 243.269 243.269 0 0 0 1.587 22.607 Q 1.205 15.404 0.573 11.019 A 49.255 49.255 0 0 0 0.293 9.277 Z M 193.262 9.277 L 192.969 7.617 A 26.889 26.889 0 0 0 198.133 6.477 A 30.117 30.117 0 0 0 198.877 6.226 A 37.649 37.649 0 0 0 203.019 4.471 A 44.393 44.393 0 0 0 204.932 3.467 L 205.273 3.271 A 169.808 169.808 0 0 0 204.35 10.413 A 204.887 204.887 0 0 0 203.906 14.99 A 206.432 206.432 0 0 0 203.455 21.497 A 257.941 257.941 0 0 0 203.174 28.516 L 213.867 21.875 A 17.589 17.589 0 0 1 215.047 22.217 Q 215.673 22.421 216.37 22.691 A 33.747 33.747 0 0 1 217.017 22.949 A 31.096 31.096 0 0 1 219.193 23.948 A 38.991 38.991 0 0 1 220.752 24.78 A 39.682 39.682 0 0 1 223.472 26.464 A 46.784 46.784 0 0 1 224.731 27.344 A 31.368 31.368 0 0 1 228.54 30.591 A 27.948 27.948 0 0 1 231.787 34.497 Q 233.252 36.621 234.131 39.063 A 28.116 28.116 0 0 1 236.033 46.923 A 33.223 33.223 0 0 1 236.182 49.316 A 343.998 343.998 0 0 0 236.392 54.412 Q 236.491 56.431 236.61 58.276 A 196.229 196.229 0 0 0 236.865 61.792 Q 237.197 65.833 237.669 68.912 A 58.977 58.977 0 0 0 237.988 70.801 L 238.379 72.559 A 27.24 27.24 0 0 0 234.684 73.252 A 25.085 25.085 0 0 0 234.448 73.315 A 34.51 34.51 0 0 0 232.213 74.004 A 28.335 28.335 0 0 0 230.981 74.463 A 31.648 31.648 0 0 0 229.474 75.11 A 24.519 24.519 0 0 0 228.125 75.781 A 23.678 23.678 0 0 0 227.259 76.27 Q 226.87 76.501 226.544 76.719 A 10.689 10.689 0 0 0 226.074 77.051 A 171.862 171.862 0 0 0 227.912 56.81 A 153.312 153.312 0 0 0 227.979 52.295 A 1912.498 1912.498 0 0 1 227.892 50.423 Q 227.852 49.543 227.817 48.758 A 1132.417 1132.417 0 0 1 227.808 48.535 A 42.844 42.844 0 0 0 227.71 46.954 A 31.508 31.508 0 0 0 227.563 45.532 A 18.145 18.145 0 0 0 227.333 44.137 A 14.08 14.08 0 0 0 227.075 43.091 Q 226.758 41.992 226.172 41.016 A 20.594 20.594 0 0 0 222.925 37.256 A 17.434 17.434 0 0 0 220.738 35.582 A 23.425 23.425 0 0 0 218.408 34.253 A 34.475 34.475 0 0 0 215.867 33.115 Q 214.549 32.585 213.053 32.089 A 58.636 58.636 0 0 0 212.036 31.763 Q 208.35 30.615 203.223 29.541 L 203.174 29.541 Q 203.125 31.348 203.101 33.179 A 276.52 276.52 0 0 0 203.076 36.865 L 203.076 38.574 Q 203.125 50.342 203.516 58.35 Q 203.906 66.357 204.883 70.801 L 205.273 72.559 A 27.667 27.667 0 0 0 202.127 73.104 A 24.55 24.55 0 0 0 201.294 73.315 A 34.51 34.51 0 0 0 199.059 74.004 A 28.335 28.335 0 0 0 197.827 74.463 A 29.674 29.674 0 0 0 196.326 75.11 A 22.478 22.478 0 0 0 194.995 75.781 Q 194.066 76.291 193.395 76.747 A 11.218 11.218 0 0 0 192.969 77.051 Q 194.043 69.678 194.556 61.523 A 261.996 261.996 0 0 0 195.018 49.85 A 309.219 309.219 0 0 0 195.068 44.238 Q 195.02 31.424 194.561 22.711 A 243.269 243.269 0 0 0 194.556 22.607 Q 194.173 15.404 193.542 11.019 A 49.255 49.255 0 0 0 193.262 9.277 Z M 51.27 27.002 L 51.025 26.221 A 28.627 28.627 0 0 0 58.468 24.279 A 36.97 36.97 0 0 0 62.988 22.07 L 63.33 21.875 Q 62.491 24.351 61.543 27.476 A 263.99 263.99 0 0 0 61.23 28.516 L 71.924 21.875 A 22.223 22.223 0 0 1 73.993 22.54 Q 75.055 22.935 76.259 23.476 A 56.499 56.499 0 0 1 78.809 24.707 A 31.43 31.43 0 0 1 83.907 28.083 A 37.778 37.778 0 0 1 86.133 30.029 Q 90.43 34.131 92.188 39.063 A 28.116 28.116 0 0 1 94.09 46.923 A 33.223 33.223 0 0 1 94.238 49.316 A 293.168 293.168 0 0 0 94.516 55.988 Q 94.9 63.128 95.589 67.998 A 62.9 62.9 0 0 0 96.045 70.801 L 96.436 72.559 A 29.312 29.312 0 0 0 92.941 73.183 A 23.67 23.67 0 0 0 90.479 73.926 A 44.745 44.745 0 0 0 88.089 74.878 Q 85.854 75.85 84.45 76.822 A 11.478 11.478 0 0 0 84.131 77.051 A 171.862 171.862 0 0 0 85.968 56.81 A 153.312 153.312 0 0 0 86.035 52.295 Q 85.986 50.732 85.986 49.512 A 28.733 28.733 0 0 0 85.831 46.419 Q 85.49 43.279 84.398 41.307 A 8.04 8.04 0 0 0 84.229 41.016 A 19.644 19.644 0 0 0 79.554 36.249 A 26.432 26.432 0 0 0 75.732 33.936 A 32.652 32.652 0 0 0 72.223 32.457 Q 67.859 30.884 61.279 29.541 L 61.23 29.541 Q 60.951 32.453 60.9 41.165 A 717.746 717.746 0 0 0 60.889 45.361 L 60.889 47.07 Q 60.889 60.791 62.939 70.801 L 63.33 72.559 A 29.239 29.239 0 0 0 59.995 73.139 A 22.521 22.521 0 0 0 57.373 73.926 A 44.745 44.745 0 0 0 54.984 74.878 Q 52.749 75.85 51.345 76.822 A 11.478 11.478 0 0 0 51.025 77.051 A 297.702 297.702 0 0 0 52.082 67.568 Q 52.481 63.324 52.681 59.615 A 128.502 128.502 0 0 0 52.881 52.734 Q 52.881 47.9 52.832 47.461 A 160.543 160.543 0 0 0 52.405 36.818 A 116.694 116.694 0 0 0 51.27 27.002 Z M 253.857 38.965 L 253.564 27.832 A 108.192 108.192 0 0 0 248.904 28.059 A 92.199 92.199 0 0 0 246.899 28.223 A 69.704 69.704 0 0 0 241.187 28.987 A 63.748 63.748 0 0 0 240.82 29.053 Q 241.504 27.979 242.065 26.147 Q 242.58 24.468 242.869 22.276 A 34.609 34.609 0 0 0 242.92 21.875 L 243.701 22.119 Q 245.117 22.559 247.51 22.729 A 148.548 148.548 0 0 0 249.448 22.854 Q 251.184 22.955 253.32 23.047 A 329.003 329.003 0 0 0 253.13 19.799 Q 253.048 18.512 252.962 17.334 A 188.801 188.801 0 0 0 252.783 15.088 A 107.242 107.242 0 0 0 252.55 12.669 Q 252.344 10.773 252.1 9.277 L 251.807 7.617 A 26.802 26.802 0 0 0 257.739 6.226 Q 260.601 5.209 263.897 3.39 A 58.235 58.235 0 0 0 264.111 3.271 Q 262.835 11.386 262.282 21.67 A 258.508 258.508 0 0 0 262.207 23.145 A 104.445 104.445 0 0 0 266.433 22.951 A 84.066 84.066 0 0 0 269.116 22.729 Q 272.314 22.412 275.098 21.875 A 21.193 21.193 0 0 0 273.096 29.053 L 272.314 28.857 Q 271.186 28.592 269.629 28.428 A 40.316 40.316 0 0 0 268.066 28.296 Q 266.287 28.178 264.093 28.049 A 852.165 852.165 0 0 0 262.012 27.93 Q 261.963 30.127 261.938 32.324 A 404.124 404.124 0 0 0 261.914 36.282 A 444.594 444.594 0 0 0 261.914 36.865 L 261.914 38.574 Q 261.963 50.342 262.354 58.35 Q 262.744 66.357 263.721 70.801 L 264.111 72.559 A 27.442 27.442 0 0 0 261.19 73.133 A 31.072 31.072 0 0 0 260.498 73.315 A 36.504 36.504 0 0 0 257.382 74.325 A 33.304 33.304 0 0 0 256.958 74.487 A 41.902 41.902 0 0 0 255.353 75.153 A 32.549 32.549 0 0 0 253.906 75.83 A 24.993 24.993 0 0 0 253.114 76.243 Q 252.31 76.682 251.807 77.051 Q 252.881 69.678 253.394 61.523 A 261.996 261.996 0 0 0 253.856 49.85 A 309.219 309.219 0 0 0 253.906 44.238 L 253.906 41.357 A 61.73 61.73 0 0 0 253.894 40.1 A 45.497 45.497 0 0 0 253.857 38.965 Z M 109.717 27.002 L 109.473 26.221 A 26.802 26.802 0 0 0 115.405 24.829 Q 118.359 23.779 121.436 22.07 L 121.777 21.875 A 49.625 49.625 0 0 0 120.49 27.798 Q 119.336 35.022 119.336 45.361 L 119.336 47.07 Q 119.336 60.791 121.387 70.801 L 121.777 72.559 A 27.667 27.667 0 0 0 118.631 73.104 A 24.55 24.55 0 0 0 117.798 73.315 A 34.51 34.51 0 0 0 115.562 74.004 A 28.335 28.335 0 0 0 114.331 74.463 A 29.674 29.674 0 0 0 112.83 75.11 A 22.478 22.478 0 0 0 111.499 75.781 Q 110.57 76.291 109.899 76.747 A 11.218 11.218 0 0 0 109.473 77.051 A 326.803 326.803 0 0 0 110.284 70.013 A 240.09 240.09 0 0 0 110.864 63.647 Q 111.328 57.617 111.328 52.734 Q 111.328 48.779 111.255 45.337 A 164.571 164.571 0 0 0 111.087 40.565 A 140.885 140.885 0 0 0 110.986 38.794 A 130.024 130.024 0 0 0 110.551 33.536 A 117.095 117.095 0 0 0 110.474 32.812 A 149.63 149.63 0 0 0 109.717 27.002 Z M 109.229 5.566 L 108.936 4.541 A 29.174 29.174 0 0 0 116.866 2.546 A 37.821 37.821 0 0 0 121.68 0.195 L 122.021 0 Q 121.316 2.514 121.248 6.981 A 64.081 64.081 0 0 0 121.24 7.959 A 35.37 35.37 0 0 0 121.271 9.393 A 46.47 46.47 0 0 0 121.362 10.962 A 63.41 63.41 0 0 0 121.515 12.677 A 83.322 83.322 0 0 0 121.729 14.551 A 30.603 30.603 0 0 0 117.749 15.308 A 36.92 36.92 0 0 0 114.976 16.14 A 31.939 31.939 0 0 0 114.038 16.479 A 31.623 31.623 0 0 0 112.196 17.244 A 24.676 24.676 0 0 0 110.913 17.871 A 26.994 26.994 0 0 0 109.941 18.407 Q 109.496 18.665 109.122 18.91 A 12.507 12.507 0 0 0 108.643 19.238 A 36.62 36.62 0 0 0 109.556 11.932 A 40.955 40.955 0 0 0 109.57 10.84 Q 109.57 9.521 109.497 8.203 A 28.936 28.936 0 0 0 109.229 5.566 Z" vector-effect="non-scaling-stroke"/></g></svg>