<svg width="245.02" height="73.779" viewBox="0 0 245.02 73.779" xmlns="http://www.w3.org/2000/svg"><g id="svgGroup" stroke-linecap="round" fill-rule="evenodd" font-size="9pt" stroke="#000" stroke-width="0.25mm" fill="#000" style="stroke:#000;stroke-width:0.25mm;fill:#000"><path d="M 106.836 6.25 L 106.445 4.492 A 23.374 23.374 0 0 0 110.258 3.816 A 21.658 21.658 0 0 0 110.376 3.784 Q 112.256 3.271 113.843 2.612 A 33.536 33.536 0 0 0 115.344 1.947 A 25.203 25.203 0 0 0 116.675 1.27 Q 117.628 0.746 118.338 0.28 A 14.793 14.793 0 0 0 118.75 0 A 174.346 174.346 0 0 0 116.965 18.741 A 153.575 153.575 0 0 0 116.846 24.756 A 1912.498 1912.498 0 0 1 116.932 26.628 Q 116.972 27.508 117.007 28.293 A 1132.417 1132.417 0 0 1 117.017 28.516 Q 117.09 30.176 117.236 31.519 A 14.409 14.409 0 0 0 117.462 32.95 A 11.321 11.321 0 0 0 117.725 33.96 A 9.508 9.508 0 0 0 118.652 36.035 A 18.233 18.233 0 0 0 122.52 40.17 A 21.49 21.49 0 0 0 123.633 40.991 A 33.61 33.61 0 0 0 130.151 44.507 A 41.139 41.139 0 0 0 135.697 46.317 A 36.902 36.902 0 0 0 136.963 46.606 Q 140.332 47.314 142.773 47.314 A 20.045 20.045 0 0 0 147.146 46.852 A 17.505 17.505 0 0 0 149.121 46.289 A 26.567 26.567 0 0 1 145.339 41.36 A 22.655 22.655 0 0 1 143.604 37.72 A 30.2 30.2 0 0 1 141.858 29.722 A 35.186 35.186 0 0 1 141.748 27.734 A 343.998 343.998 0 0 0 141.537 22.638 Q 141.438 20.619 141.32 18.775 A 196.229 196.229 0 0 0 141.064 15.259 Q 140.732 11.217 140.261 8.139 A 58.977 58.977 0 0 0 139.941 6.25 L 139.551 4.492 A 23.374 23.374 0 0 0 143.364 3.816 A 21.658 21.658 0 0 0 143.481 3.784 Q 145.361 3.271 146.948 2.612 A 33.536 33.536 0 0 0 148.45 1.947 A 25.203 25.203 0 0 0 149.78 1.27 Q 150.734 0.746 151.444 0.28 A 14.793 14.793 0 0 0 151.855 0 A 174.346 174.346 0 0 0 150.07 18.741 A 153.575 153.575 0 0 0 149.951 24.756 A 1912.498 1912.498 0 0 1 150.037 26.628 Q 150.077 27.508 150.112 28.293 A 1132.417 1132.417 0 0 1 150.122 28.516 Q 150.195 30.176 150.342 31.519 A 14.409 14.409 0 0 0 150.568 32.95 A 11.321 11.321 0 0 0 150.83 33.96 A 9.508 9.508 0 0 0 151.758 36.035 A 20.594 20.594 0 0 0 155.005 39.795 A 17.434 17.434 0 0 0 157.192 41.469 A 23.425 23.425 0 0 0 159.521 42.798 A 34.475 34.475 0 0 0 162.063 43.935 Q 163.381 44.466 164.877 44.962 A 58.636 58.636 0 0 0 165.894 45.288 Q 169.58 46.436 174.707 47.51 L 174.756 47.51 Q 174.951 45.703 175.024 41.772 A 330.562 330.562 0 0 0 175.056 39.668 Q 175.092 36.777 175.097 32.962 A 975.482 975.482 0 0 0 175.098 31.689 L 175.098 29.98 A 256.051 256.051 0 0 0 174.921 23.37 A 207.763 207.763 0 0 0 174.585 17.212 A 80.904 80.904 0 0 0 173.843 10.485 A 65.229 65.229 0 0 0 173.047 6.25 L 172.656 4.492 A 23.374 23.374 0 0 0 176.469 3.816 A 21.658 21.658 0 0 0 176.587 3.784 Q 178.467 3.271 180.054 2.612 A 33.536 33.536 0 0 0 181.555 1.947 A 25.203 25.203 0 0 0 182.886 1.27 Q 183.839 0.746 184.549 0.28 A 14.793 14.793 0 0 0 184.961 0 A 326.803 326.803 0 0 0 184.149 7.037 A 240.09 240.09 0 0 0 183.569 13.403 Q 183.105 19.434 183.105 24.316 Q 183.105 28.32 183.179 31.738 A 208.704 208.704 0 0 0 183.276 35.077 A 180.674 180.674 0 0 0 183.423 38.257 A 111.309 111.309 0 0 0 183.834 43.515 A 100.324 100.324 0 0 0 183.911 44.238 A 105.851 105.851 0 0 0 184.717 50.049 L 184.961 50.83 A 26.802 26.802 0 0 0 179.028 52.222 Q 176.167 53.239 172.87 55.057 A 58.235 58.235 0 0 0 172.656 55.176 A 123.686 123.686 0 0 0 173.157 53.693 A 158.587 158.587 0 0 0 173.682 52.075 A 133.341 133.341 0 0 0 174.487 49.452 A 152.092 152.092 0 0 0 174.756 48.535 L 164.063 55.176 A 19.895 19.895 0 0 1 163.015 54.871 Q 162.44 54.688 161.8 54.452 A 37.988 37.988 0 0 1 161.011 54.15 A 29.973 29.973 0 0 1 158.787 53.162 A 36.924 36.924 0 0 1 157.397 52.441 A 42.003 42.003 0 0 1 154.657 50.803 A 48.922 48.922 0 0 1 153.564 50.073 Q 151.611 48.73 149.854 47.021 L 130.957 55.176 A 19.334 19.334 0 0 1 129.37 54.679 Q 127.853 54.139 125.977 53.247 A 34.651 34.651 0 0 1 122.11 51.084 A 42.104 42.104 0 0 1 120.068 49.683 A 33.168 33.168 0 0 1 114.551 44.58 Q 112.012 41.65 110.693 37.988 A 28.116 28.116 0 0 1 108.791 30.128 A 33.223 33.223 0 0 1 108.643 27.734 A 343.998 343.998 0 0 0 108.432 22.638 Q 108.333 20.619 108.215 18.775 A 196.229 196.229 0 0 0 107.959 15.259 Q 107.627 11.217 107.155 8.139 A 58.977 58.977 0 0 0 106.836 6.25 Z M 199.854 5.127 L 199.609 4.346 A 28.627 28.627 0 0 0 207.052 2.404 A 36.97 36.97 0 0 0 211.572 0.195 L 211.914 0 Q 211.075 2.476 210.127 5.601 A 263.99 263.99 0 0 0 209.814 6.641 L 220.508 0 A 22.223 22.223 0 0 1 222.577 0.665 Q 223.639 1.06 224.843 1.601 A 56.499 56.499 0 0 1 227.393 2.832 A 31.43 31.43 0 0 1 232.491 6.208 A 37.778 37.778 0 0 1 234.717 8.154 Q 239.014 12.256 240.771 17.188 A 28.116 28.116 0 0 1 242.674 25.048 A 33.223 33.223 0 0 1 242.822 27.441 A 293.168 293.168 0 0 0 243.1 34.113 Q 243.484 41.253 244.173 46.123 A 62.9 62.9 0 0 0 244.629 48.926 L 245.02 50.684 A 29.312 29.312 0 0 0 241.525 51.308 A 23.67 23.67 0 0 0 239.063 52.051 A 44.745 44.745 0 0 0 236.673 53.003 Q 234.438 53.975 233.034 54.947 A 11.478 11.478 0 0 0 232.715 55.176 A 171.862 171.862 0 0 0 234.552 34.935 A 153.312 153.312 0 0 0 234.619 30.42 Q 234.57 28.857 234.57 27.637 A 28.733 28.733 0 0 0 234.415 24.544 Q 234.074 21.404 232.982 19.432 A 8.04 8.04 0 0 0 232.813 19.141 A 19.644 19.644 0 0 0 228.138 14.374 A 26.432 26.432 0 0 0 224.316 12.061 A 32.652 32.652 0 0 0 220.807 10.582 Q 216.443 9.009 209.863 7.666 L 209.814 7.666 Q 209.535 10.578 209.484 19.29 A 717.746 717.746 0 0 0 209.473 23.486 L 209.473 25.195 Q 209.473 38.916 211.523 48.926 L 211.914 50.684 A 29.239 29.239 0 0 0 208.579 51.264 A 22.521 22.521 0 0 0 205.957 52.051 A 44.745 44.745 0 0 0 203.568 53.003 Q 201.333 53.975 199.929 54.947 A 11.478 11.478 0 0 0 199.609 55.176 A 297.702 297.702 0 0 0 200.666 45.693 Q 201.065 41.449 201.265 37.74 A 128.502 128.502 0 0 0 201.465 30.859 Q 201.465 26.025 201.416 25.586 A 160.543 160.543 0 0 0 200.989 14.943 A 116.694 116.694 0 0 0 199.854 5.127 Z M 0.293 6.006 L 0 4.346 A 26.889 26.889 0 0 0 5.164 3.205 A 30.117 30.117 0 0 0 5.908 2.954 A 35.652 35.652 0 0 0 8.997 1.691 Q 10.596 0.952 12.305 0 A 81.767 81.767 0 0 0 11.865 2.979 A 781.544 781.544 0 0 0 11.475 6.055 L 21.24 0 Q 22.705 0.391 24.634 1.196 A 38.18 38.18 0 0 1 27.8 2.699 A 43.044 43.044 0 0 1 28.54 3.101 A 41.603 41.603 0 0 1 32.349 5.493 Q 34.18 6.787 35.449 8.154 A 38.938 38.938 0 0 1 38.772 12.242 A 36.003 36.003 0 0 1 38.867 12.378 Q 40.381 14.551 41.455 16.943 A 23.87 23.87 0 0 1 43.066 21.973 A 26.832 26.832 0 0 1 43.551 25.783 A 32.146 32.146 0 0 1 43.604 27.637 Q 43.342 30.104 43.037 32.042 A 54.563 54.563 0 0 1 42.847 33.179 A 25.321 25.321 0 0 1 42.073 36.349 A 21.983 21.983 0 0 1 41.675 37.5 A 21.593 21.593 0 0 1 40.194 40.613 A 24.791 24.791 0 0 1 39.673 41.479 Q 38.72 42.994 37.294 44.837 A 70.13 70.13 0 0 1 36.377 45.996 Q 35.921 46.543 35.252 47.133 A 14.939 14.939 0 0 1 35.156 47.217 A 45.873 45.873 0 0 1 34.469 47.8 Q 34.115 48.095 33.717 48.416 A 78.193 78.193 0 0 1 33.447 48.633 L 23.096 55.176 A 14.123 14.123 0 0 1 21.394 54.766 Q 20.522 54.503 19.538 54.111 A 35.562 35.562 0 0 1 17.456 53.198 Q 14.327 51.714 10.963 49.011 A 47.48 47.48 0 0 1 10.498 48.633 A 232.302 232.302 0 0 0 11.084 58.057 A 388.462 388.462 0 0 0 12.012 67.773 L 12.305 69.287 L 12.305 69.434 A 26.802 26.802 0 0 0 6.372 70.825 Q 3.511 71.842 0.214 73.661 A 58.235 58.235 0 0 0 0 73.779 Q 1.074 66.406 1.587 58.252 A 261.996 261.996 0 0 0 2.05 46.578 A 309.219 309.219 0 0 0 2.1 40.967 Q 2.051 28.152 1.592 19.439 A 243.269 243.269 0 0 0 1.587 19.336 Q 1.205 12.132 0.573 7.748 A 49.255 49.255 0 0 0 0.293 6.006 Z M 61.377 16.895 L 54.443 14.16 Q 55.713 11.23 58.74 8.789 L 61.035 6.934 L 72.168 0 A 22.223 22.223 0 0 1 74.237 0.665 Q 75.299 1.06 76.503 1.601 A 56.499 56.499 0 0 1 79.053 2.832 A 29.797 29.797 0 0 1 85.242 7.1 A 34.321 34.321 0 0 1 86.377 8.154 A 27.607 27.607 0 0 1 90.039 12.512 A 21.714 21.714 0 0 1 92.432 17.188 A 28.116 28.116 0 0 1 94.334 25.048 A 33.223 33.223 0 0 1 94.482 27.441 Q 94.764 38.871 95.809 46.055 A 64.051 64.051 0 0 0 96.289 48.926 L 96.68 50.684 A 29.239 29.239 0 0 0 93.345 51.264 A 22.521 22.521 0 0 0 90.723 52.051 A 44.745 44.745 0 0 0 88.333 53.003 Q 86.098 53.975 84.694 54.947 A 11.478 11.478 0 0 0 84.375 55.176 Q 86.23 41.992 86.23 28.955 L 86.23 27.637 A 28.419 28.419 0 0 0 86.076 24.564 Q 85.709 21.201 84.473 19.141 Q 81.396 14.6 75.977 12.061 A 37.505 37.505 0 0 0 72.566 10.68 Q 69.035 9.429 64.036 8.24 A 145.934 145.934 0 0 0 61.523 7.666 A 3.666 3.666 0 0 0 61.129 8.547 Q 60.742 9.783 60.742 11.914 A 15.076 15.076 0 0 0 60.804 13.219 Q 60.931 14.676 61.32 16.616 A 49.847 49.847 0 0 0 61.377 16.895 Z M 84.326 48.438 L 74.072 55.176 Q 71.974 54.44 68.016 52.482 A 182.322 182.322 0 0 1 65.234 51.074 A 27.225 27.225 0 0 1 60.492 47.923 Q 58.437 46.24 56.445 44.043 A 24.496 24.496 0 0 1 54.666 40.773 Q 53.867 38.968 53.542 37.275 A 12.016 12.016 0 0 1 53.32 35.01 L 53.32 34.766 A 13.788 13.788 0 0 1 58.642 25.31 A 16.844 16.844 0 0 1 58.789 25.195 A 29.582 29.582 0 0 1 71.337 19.669 A 40.894 40.894 0 0 1 78.857 18.945 A 71.56 71.56 0 0 0 72.942 21.399 Q 67.049 24.186 64.109 27.273 A 10.861 10.861 0 0 0 61.621 31.152 A 9.083 9.083 0 0 0 61.214 32.794 A 7.518 7.518 0 0 0 61.133 33.887 A 5.859 5.859 0 0 0 62.695 37.891 Q 66.895 42.139 69.775 43.555 Q 77.965 47.582 83.471 48.338 A 20.111 20.111 0 0 0 84.326 48.438 Z M 10.107 30.371 L 10.303 33.35 Q 12.744 39.99 18.994 43.945 A 16.711 16.711 0 0 0 21.753 45.351 Q 24.758 46.585 29.415 47.552 A 90.798 90.798 0 0 0 33.154 48.242 L 33.203 48.193 A 12.328 12.328 0 0 0 33.497 47.59 Q 33.772 46.989 34.107 46.138 A 55.597 55.597 0 0 0 34.424 45.312 A 43.425 43.425 0 0 0 35.138 43.243 A 57.151 57.151 0 0 0 35.815 40.942 A 56.65 56.65 0 0 0 36.88 36.239 A 61.803 61.803 0 0 0 36.938 35.913 A 31.258 31.258 0 0 0 37.307 33.165 A 24.329 24.329 0 0 0 37.402 31.055 A 18.825 18.825 0 0 0 37.056 27.527 A 22.713 22.713 0 0 0 36.67 25.854 A 21.764 21.764 0 0 0 34.495 20.661 A 24.079 24.079 0 0 0 34.448 20.581 A 21.283 21.283 0 0 0 31.48 16.641 A 24.362 24.362 0 0 0 30.64 15.796 Q 28.32 13.574 25.098 12.061 A 35.085 35.085 0 0 0 22.98 11.156 Q 21.83 10.706 20.504 10.264 A 66.998 66.998 0 0 0 19.263 9.863 Q 15.82 8.789 11.279 7.764 A 211.874 211.874 0 0 0 10.492 18.068 Q 10.202 23.512 10.118 29.562 A 345.802 345.802 0 0 0 10.107 30.371 Z" vector-effect="non-scaling-stroke"/></g></svg>