<svg width="264.604" height="73.828" viewBox="0 0 264.604 73.828" xmlns="http://www.w3.org/2000/svg"><g id="svgGroup" stroke-linecap="round" fill-rule="evenodd" font-size="9pt" stroke="#000" stroke-width="0.25mm" fill="#000" style="stroke:#000;stroke-width:0.25mm;fill:#000"><path d="M 35.16 34.18 L 35.16 32.617 A 960.835 960.835 0 0 0 35.124 30.64 Q 35.093 29.083 35.063 27.832 Q 35.021 26.112 34.871 24.734 A 25.044 25.044 0 0 0 34.819 24.292 A 14.854 14.854 0 0 0 34.562 22.833 A 11.353 11.353 0 0 0 34.184 21.533 A 8.173 8.173 0 0 0 33.229 19.685 A 9.588 9.588 0 0 0 32.865 19.189 A 20.825 20.825 0 0 0 30.373 16.161 A 18.421 18.421 0 0 0 29.374 15.234 A 20.934 20.934 0 0 0 26.761 13.329 A 26.352 26.352 0 0 0 24.809 12.231 A 37.136 37.136 0 0 0 22.042 10.971 Q 20.655 10.402 19.085 9.869 A 61.049 61.049 0 0 0 18.632 9.717 A 143.436 143.436 0 0 0 15.305 8.663 Q 13.591 8.142 11.664 7.594 A 255.521 255.521 0 0 0 10.356 7.227 A 35.172 35.172 0 0 0 8.762 10.415 A 30.17 30.17 0 0 0 8.183 11.841 A 35.296 35.296 0 0 0 7.144 15.042 A 30.579 30.579 0 0 0 6.84 16.26 A 31.077 31.077 0 0 0 6.26 19.638 A 27.62 27.62 0 0 0 6.181 20.435 A 47.371 47.371 0 0 0 6.013 23.887 A 42.951 42.951 0 0 0 6.01 24.365 A 21.75 21.75 0 0 0 6.816 30.298 Q 7.621 33.154 9.159 35.669 A 20.668 20.668 0 0 0 12.968 40.234 A 21.277 21.277 0 0 0 17.438 43.314 A 24.264 24.264 0 0 0 18.217 43.701 Q 20.483 44.792 23.452 45.829 A 73.508 73.508 0 0 0 24.443 46.167 A 67.178 67.178 0 0 0 28.049 47.251 Q 29.956 47.77 32.101 48.252 A 112.178 112.178 0 0 0 32.719 48.389 L 22.367 55.176 A 6.363 6.363 0 0 1 21.975 55.077 Q 21.529 54.95 20.879 54.719 A 39.145 39.145 0 0 1 20.194 54.468 Q 19.054 54.038 17.671 53.379 A 50.51 50.51 0 0 1 16.801 52.954 A 35.906 35.906 0 0 1 14.83 51.886 A 48.274 48.274 0 0 1 12.724 50.586 A 32.168 32.168 0 0 1 9.015 47.753 A 35.929 35.929 0 0 1 8.5 47.29 A 26.577 26.577 0 0 1 4.969 43.312 A 29.508 29.508 0 0 1 4.74 42.993 A 21.151 21.151 0 0 1 2.137 37.968 A 23.719 23.719 0 0 1 2.006 37.598 A 47.162 47.162 0 0 1 0.979 34.305 A 38.37 38.37 0 0 1 0.492 32.3 A 22.11 22.11 0 0 1 0 27.669 A 21.999 21.999 0 0 1 0.004 27.246 A 25.588 25.588 0 0 1 0.456 22.528 A 28.941 28.941 0 0 1 0.639 21.631 A 33.463 33.463 0 0 1 2.13 16.67 A 30.646 30.646 0 0 1 2.323 16.187 A 26.698 26.698 0 0 1 3.848 13.043 A 22.64 22.64 0 0 1 4.765 11.572 A 14.953 14.953 0 0 1 5.924 10.067 Q 6.791 9.085 7.719 8.447 L 9.428 6.982 L 20.561 0.049 A 14.43 14.43 0 0 1 21.619 0.361 Q 22.124 0.529 22.69 0.75 A 32.575 32.575 0 0 1 23.881 1.245 Q 25.834 2.1 27.836 3.223 Q 29.838 4.346 31.694 5.64 A 25.477 25.477 0 0 1 33.196 6.767 Q 33.917 7.354 34.505 7.935 A 14.668 14.668 0 0 1 34.77 8.203 A 95.518 95.518 0 0 1 36.655 10.274 Q 37.526 11.261 38.271 12.169 A 56.283 56.283 0 0 1 38.481 12.427 A 24.118 24.118 0 0 1 40.214 14.847 A 20.074 20.074 0 0 1 41.044 16.309 Q 42.045 18.262 42.533 20.41 A 19.028 19.028 0 0 1 42.914 22.844 A 25.655 25.655 0 0 1 43.022 25.244 A 46.193 46.193 0 0 1 43.006 26.349 Q 42.961 28.235 42.778 31.494 A 116.67 116.67 0 0 0 42.671 33.862 Q 42.576 36.506 42.547 39.98 A 392.97 392.97 0 0 0 42.533 43.311 L 42.533 47.314 A 89.47 89.47 0 0 0 43.007 56.688 A 75.937 75.937 0 0 0 43.559 60.84 A 18.053 18.053 0 0 0 47.028 59.428 Q 49.633 58.061 52.445 55.713 A 9.232 9.232 0 0 0 52.64 56.493 Q 52.765 56.92 52.94 57.397 A 19.272 19.272 0 0 0 53.178 58.008 A 26.8 26.8 0 0 0 53.782 59.375 A 35.426 35.426 0 0 0 54.521 60.84 A 28.54 28.54 0 0 0 55.652 62.77 A 34.983 34.983 0 0 0 56.449 63.965 A 28.066 28.066 0 0 0 58.966 67.066 A 30.392 30.392 0 0 0 58.988 67.09 L 57.719 66.992 Q 56.958 66.992 55.062 67.173 A 121.342 121.342 0 0 0 54.179 67.261 A 78.773 78.773 0 0 0 52.758 67.421 Q 50.456 67.7 47.123 68.213 A 14.376 14.376 0 0 0 46.359 68.335 Q 45.451 68.504 44.242 68.823 A 38.488 38.488 0 0 0 42.188 69.43 A 48.837 48.837 0 0 0 40.483 70.02 Q 38.481 70.752 36.479 71.704 A 25.643 25.643 0 0 0 33.668 73.256 A 22.572 22.572 0 0 0 32.817 73.828 Q 34.274 65.813 34.78 54.836 A 253.723 253.723 0 0 0 35.014 47.021 A 2162.668 2162.668 0 0 0 35.078 42.813 Q 35.152 37.613 35.159 34.808 A 227.151 227.151 0 0 0 35.16 34.18 Z M 148.393 48.438 L 137.26 55.371 A 19.161 19.161 0 0 1 135.141 54.725 Q 132.986 53.941 130.326 52.515 A 33.387 33.387 0 0 1 123.002 47.217 A 26.253 26.253 0 0 1 119.352 42.883 A 21.004 21.004 0 0 1 116.996 38.184 A 24.488 24.488 0 0 1 115.849 34.536 Q 115.417 32.708 115.153 30.585 A 50.47 50.47 0 0 1 114.897 27.93 L 114.897 27.734 A 25.226 25.226 0 0 1 115.927 20.73 A 32.107 32.107 0 0 1 117.289 16.943 A 26.577 26.577 0 0 1 122.123 9.375 A 22.076 22.076 0 0 1 124.053 7.541 A 26.237 26.237 0 0 1 125.053 6.738 L 135.307 0 A 24.079 24.079 0 0 1 136.802 0.575 Q 139.313 1.622 143.719 3.882 A 236.679 236.679 0 0 1 144.145 4.102 A 27.225 27.225 0 0 1 148.887 7.253 Q 150.91 8.909 152.872 11.064 A 44.65 44.65 0 0 1 152.934 11.133 A 24.496 24.496 0 0 1 154.713 14.403 Q 155.512 16.208 155.837 17.901 A 12.016 12.016 0 0 1 156.059 20.166 L 156.059 20.41 A 13.653 13.653 0 0 1 150.81 29.81 A 16.37 16.37 0 0 1 150.59 29.98 A 29.916 29.916 0 0 1 137.727 35.563 A 40.958 40.958 0 0 1 130.522 36.23 A 73.14 73.14 0 0 0 136.553 33.889 Q 142.732 31.142 145.86 27.997 A 11.571 11.571 0 0 0 148.442 24.268 A 7.803 7.803 0 0 0 148.931 22.603 A 6.605 6.605 0 0 0 149.028 21.484 L 149.028 21.387 L 149.028 21.289 A 5.251 5.251 0 0 0 148.409 18.857 Q 147.999 18.063 147.319 17.285 A 18.548 18.548 0 0 0 144.404 14.549 Q 142.354 12.983 139.604 11.621 Q 131.01 7.373 125.639 6.836 Q 123.783 9.863 122.27 16.016 A 48.648 48.648 0 0 0 121.556 19.426 Q 121.098 22.119 121.098 24.316 A 20.407 20.407 0 0 0 121.253 26.869 A 18.171 18.171 0 0 0 121.342 27.49 A 19.637 19.637 0 0 0 122.946 32.668 A 26.257 26.257 0 0 0 124.955 36.23 A 19.957 19.957 0 0 0 131.415 42.25 A 24.682 24.682 0 0 0 133.403 43.311 A 34.494 34.494 0 0 0 136.437 44.57 Q 139.795 45.799 144.676 47.012 A 151.097 151.097 0 0 0 147.807 47.754 L 147.856 47.705 A 3.666 3.666 0 0 0 148.25 46.824 Q 148.637 45.589 148.637 43.457 A 15.076 15.076 0 0 0 148.575 42.152 Q 148.448 40.695 148.059 38.755 A 49.847 49.847 0 0 0 148.002 38.477 L 154.936 41.211 A 13.247 13.247 0 0 1 152.509 44.848 A 17.288 17.288 0 0 1 150.639 46.582 Q 148.612 48.212 148.414 48.411 A 0.082 0.082 0 0 0 148.393 48.438 Z M 199.32 48.438 L 188.188 55.371 A 19.161 19.161 0 0 1 186.069 54.725 Q 183.914 53.941 181.254 52.515 A 33.387 33.387 0 0 1 173.93 47.217 A 26.253 26.253 0 0 1 170.28 42.883 A 21.004 21.004 0 0 1 167.924 38.184 A 24.488 24.488 0 0 1 166.777 34.536 Q 166.345 32.708 166.081 30.585 A 50.47 50.47 0 0 1 165.824 27.93 L 165.824 27.734 A 25.226 25.226 0 0 1 166.855 20.73 A 32.107 32.107 0 0 1 168.217 16.943 A 26.577 26.577 0 0 1 173.051 9.375 A 22.076 22.076 0 0 1 174.981 7.541 A 26.237 26.237 0 0 1 175.981 6.738 L 186.235 0 A 24.079 24.079 0 0 1 187.73 0.575 Q 190.24 1.622 194.647 3.882 A 236.679 236.679 0 0 1 195.072 4.102 A 27.225 27.225 0 0 1 199.815 7.253 Q 201.838 8.909 203.799 11.064 A 44.65 44.65 0 0 1 203.861 11.133 A 24.496 24.496 0 0 1 205.641 14.403 Q 206.44 16.208 206.764 17.901 A 12.016 12.016 0 0 1 206.986 20.166 L 206.986 20.41 A 13.653 13.653 0 0 1 201.738 29.81 A 16.37 16.37 0 0 1 201.518 29.98 A 29.916 29.916 0 0 1 188.655 35.563 A 40.958 40.958 0 0 1 181.449 36.23 A 73.14 73.14 0 0 0 187.481 33.889 Q 193.659 31.142 196.788 27.997 A 11.571 11.571 0 0 0 199.369 24.268 A 7.803 7.803 0 0 0 199.859 22.603 A 6.605 6.605 0 0 0 199.955 21.484 L 199.955 21.387 L 199.955 21.289 A 5.251 5.251 0 0 0 199.337 18.857 Q 198.927 18.063 198.246 17.285 A 18.548 18.548 0 0 0 195.331 14.549 Q 193.282 12.983 190.531 11.621 Q 181.938 7.373 176.567 6.836 Q 174.711 9.863 173.197 16.016 A 48.648 48.648 0 0 0 172.483 19.426 Q 172.026 22.119 172.026 24.316 A 20.407 20.407 0 0 0 172.181 26.869 A 18.171 18.171 0 0 0 172.27 27.49 A 19.637 19.637 0 0 0 173.873 32.668 A 26.257 26.257 0 0 0 175.883 36.23 A 19.957 19.957 0 0 0 182.343 42.25 A 24.682 24.682 0 0 0 184.33 43.311 A 34.494 34.494 0 0 0 187.365 44.57 Q 190.723 45.799 195.604 47.012 A 151.097 151.097 0 0 0 198.735 47.754 L 198.783 47.705 A 3.666 3.666 0 0 0 199.177 46.824 Q 199.565 45.589 199.565 43.457 A 15.076 15.076 0 0 0 199.503 42.152 Q 199.375 40.695 198.986 38.755 A 49.847 49.847 0 0 0 198.93 38.477 L 205.863 41.211 A 13.247 13.247 0 0 1 203.437 44.848 A 17.288 17.288 0 0 1 201.567 46.582 Q 199.54 48.212 199.342 48.411 A 0.082 0.082 0 0 0 199.32 48.438 Z M 219.438 5.127 L 219.194 4.346 A 28.627 28.627 0 0 0 226.636 2.404 A 36.97 36.97 0 0 0 231.156 0.195 L 231.498 0 Q 230.659 2.476 229.712 5.601 A 263.99 263.99 0 0 0 229.399 6.641 L 240.092 0 A 22.223 22.223 0 0 1 242.161 0.665 Q 243.223 1.06 244.427 1.601 A 56.499 56.499 0 0 1 246.977 2.832 A 31.43 31.43 0 0 1 252.075 6.208 A 37.778 37.778 0 0 1 254.301 8.154 Q 258.598 12.256 260.356 17.188 A 28.116 28.116 0 0 1 262.258 25.048 A 33.223 33.223 0 0 1 262.406 27.441 A 293.168 293.168 0 0 0 262.684 34.113 Q 263.068 41.253 263.757 46.123 A 62.9 62.9 0 0 0 264.213 48.926 L 264.604 50.684 A 29.312 29.312 0 0 0 261.109 51.308 A 23.67 23.67 0 0 0 258.647 52.051 A 44.745 44.745 0 0 0 256.257 53.003 Q 254.022 53.975 252.618 54.947 A 11.478 11.478 0 0 0 252.299 55.176 A 171.862 171.862 0 0 0 254.136 34.935 A 153.312 153.312 0 0 0 254.203 30.42 Q 254.154 28.857 254.154 27.637 A 28.733 28.733 0 0 0 254 24.544 Q 253.658 21.404 252.566 19.432 A 8.04 8.04 0 0 0 252.397 19.141 A 19.644 19.644 0 0 0 247.722 14.374 A 26.432 26.432 0 0 0 243.901 12.061 A 32.652 32.652 0 0 0 240.391 10.582 Q 236.027 9.009 229.447 7.666 L 229.399 7.666 Q 229.119 10.578 229.068 19.29 A 717.746 717.746 0 0 0 229.057 23.486 L 229.057 25.195 Q 229.057 38.916 231.108 48.926 L 231.498 50.684 A 29.239 29.239 0 0 0 228.163 51.264 A 22.521 22.521 0 0 0 225.541 52.051 A 44.745 44.745 0 0 0 223.152 53.003 Q 220.917 53.975 219.513 54.947 A 11.478 11.478 0 0 0 219.194 55.176 A 297.702 297.702 0 0 0 220.25 45.693 Q 220.649 41.449 220.849 37.74 A 128.502 128.502 0 0 0 221.049 30.859 Q 221.049 26.025 221 25.586 A 160.543 160.543 0 0 0 220.573 14.943 A 116.694 116.694 0 0 0 219.438 5.127 Z M 57.67 6.25 L 57.279 4.492 A 23.374 23.374 0 0 0 61.092 3.816 A 21.658 21.658 0 0 0 61.21 3.784 Q 63.09 3.271 64.677 2.612 A 33.536 33.536 0 0 0 66.178 1.947 A 25.203 25.203 0 0 0 67.509 1.27 Q 68.462 0.746 69.172 0.28 A 14.793 14.793 0 0 0 69.584 0 A 174.346 174.346 0 0 0 67.799 18.741 A 153.575 153.575 0 0 0 67.68 24.756 A 1912.498 1912.498 0 0 1 67.766 26.628 Q 67.806 27.508 67.841 28.293 A 1132.417 1132.417 0 0 1 67.851 28.516 Q 67.924 30.176 68.07 31.519 A 14.409 14.409 0 0 0 68.297 32.95 A 11.321 11.321 0 0 0 68.559 33.96 A 9.508 9.508 0 0 0 69.486 36.035 A 20.594 20.594 0 0 0 72.734 39.795 A 17.434 17.434 0 0 0 74.92 41.469 A 23.425 23.425 0 0 0 77.25 42.798 A 34.475 34.475 0 0 0 79.792 43.935 Q 81.109 44.466 82.605 44.962 A 58.636 58.636 0 0 0 83.622 45.288 Q 86.445 46.167 90.14 47.002 A 135.387 135.387 0 0 0 92.485 47.51 Q 92.68 45.703 92.753 41.772 A 330.562 330.562 0 0 0 92.785 39.668 Q 92.821 36.777 92.826 32.962 A 975.482 975.482 0 0 0 92.826 31.689 L 92.826 29.98 A 256.051 256.051 0 0 0 92.649 23.37 A 207.763 207.763 0 0 0 92.314 17.212 A 80.904 80.904 0 0 0 91.571 10.485 A 65.229 65.229 0 0 0 90.776 6.25 L 90.385 4.492 A 23.374 23.374 0 0 0 94.198 3.816 A 21.658 21.658 0 0 0 94.316 3.784 Q 96.195 3.271 97.782 2.612 A 33.536 33.536 0 0 0 99.284 1.947 A 25.203 25.203 0 0 0 100.614 1.27 Q 101.568 0.746 102.278 0.28 A 14.793 14.793 0 0 0 102.69 0 A 326.803 326.803 0 0 0 101.878 7.037 A 240.09 240.09 0 0 0 101.298 13.403 Q 100.834 19.434 100.834 24.316 Q 100.834 28.32 100.907 31.738 A 208.704 208.704 0 0 0 101.005 35.077 A 180.674 180.674 0 0 0 101.152 38.257 A 111.309 111.309 0 0 0 101.563 43.515 A 100.324 100.324 0 0 0 101.64 44.238 A 105.851 105.851 0 0 0 102.445 50.049 L 102.69 50.83 A 26.802 26.802 0 0 0 96.757 52.222 Q 93.803 53.271 90.727 54.98 L 90.385 55.176 A 123.686 123.686 0 0 0 90.885 53.693 A 158.587 158.587 0 0 0 91.41 52.075 A 133.341 133.341 0 0 0 92.216 49.452 A 152.092 152.092 0 0 0 92.485 48.535 L 81.791 55.176 A 19.334 19.334 0 0 1 80.204 54.679 Q 78.688 54.139 76.811 53.247 A 34.651 34.651 0 0 1 72.944 51.084 A 42.104 42.104 0 0 1 70.903 49.683 A 33.168 33.168 0 0 1 65.385 44.58 Q 62.846 41.65 61.528 37.988 A 28.116 28.116 0 0 1 59.625 30.128 A 33.223 33.223 0 0 1 59.477 27.734 A 343.998 343.998 0 0 0 59.266 22.638 Q 59.167 20.619 59.049 18.775 A 196.229 196.229 0 0 0 58.793 15.259 Q 58.461 11.217 57.989 8.139 A 58.977 58.977 0 0 0 57.67 6.25 Z" vector-effect="non-scaling-stroke"/></g></svg>