<svg width="194.922" height="73.975" viewBox="0 0 194.922 73.975" xmlns="http://www.w3.org/2000/svg"><g id="svgGroup" stroke-linecap="round" fill-rule="evenodd" font-size="9pt" stroke="#000" stroke-width="0.25mm" fill="#000" style="stroke:#000;stroke-width:0.25mm;fill:#000"><path d="M 151.514 6.006 L 151.221 4.346 A 26.889 26.889 0 0 0 156.385 3.205 A 30.117 30.117 0 0 0 157.129 2.954 A 35.652 35.652 0 0 0 160.217 1.691 Q 161.816 0.952 163.525 0 A 157.842 157.842 0 0 0 162.186 11.224 Q 161.328 21.265 161.328 33.594 L 161.328 35.303 L 161.328 39.624 A 162.203 162.203 0 0 0 161.371 43.408 A 148.298 148.298 0 0 0 161.377 43.652 Q 161.962 43.113 163.312 41.807 A 414.152 414.152 0 0 0 163.55 41.577 Q 165.088 40.088 167.114 38.013 A 416.652 416.652 0 0 0 169.22 35.84 A 529.101 529.101 0 0 0 171.484 33.472 Q 173.828 31.006 176.099 28.491 A 178.332 178.332 0 0 0 179.353 24.788 A 157.439 157.439 0 0 0 180.371 23.584 A 97.074 97.074 0 0 0 181.783 21.858 Q 182.541 20.909 183.182 20.05 A 52.313 52.313 0 0 0 183.74 19.287 L 184.229 18.604 A 25.704 25.704 0 0 0 186.13 20.236 A 20.151 20.151 0 0 0 187.622 21.289 A 23.711 23.711 0 0 0 188.62 21.894 Q 189.658 22.485 190.43 22.754 A 67.285 67.285 0 0 0 187.464 25.048 Q 184.294 27.628 180.074 31.524 A 294.997 294.997 0 0 0 177.393 34.033 L 172.51 38.867 Q 179.004 54.395 194.922 69.629 A 26.802 26.802 0 0 0 188.989 71.021 Q 186.128 72.037 182.831 73.856 A 58.235 58.235 0 0 0 182.617 73.975 Q 175.488 56.152 166.699 45.264 A 55.866 55.866 0 0 0 164.655 47.896 Q 162.676 50.621 161.702 52.809 A 16.235 16.235 0 0 0 161.67 52.881 Q 161.838 56.238 162.052 59.006 A 145.642 145.642 0 0 0 162.256 61.401 A 73.989 73.989 0 0 0 162.54 63.968 Q 162.7 65.206 162.889 66.272 A 34.788 34.788 0 0 0 163.135 67.529 L 163.525 69.287 A 27.667 27.667 0 0 0 160.379 69.832 A 24.55 24.55 0 0 0 159.546 70.044 A 34.51 34.51 0 0 0 157.31 70.732 A 28.335 28.335 0 0 0 156.079 71.191 A 29.674 29.674 0 0 0 154.578 71.838 A 22.478 22.478 0 0 0 153.247 72.51 Q 152.318 73.02 151.647 73.475 A 11.218 11.218 0 0 0 151.221 73.779 Q 152.295 66.406 152.808 58.252 A 261.996 261.996 0 0 0 153.27 46.578 A 309.219 309.219 0 0 0 153.32 40.967 Q 153.272 28.152 152.813 19.439 A 243.269 243.269 0 0 0 152.808 19.336 Q 152.425 12.132 151.794 7.748 A 49.255 49.255 0 0 0 151.514 6.006 Z M 0.244 23.73 L 0 22.949 A 26.802 26.802 0 0 0 5.933 21.558 Q 8.887 20.508 11.963 18.799 L 12.305 18.604 A 123.686 123.686 0 0 0 11.804 20.087 A 158.587 158.587 0 0 0 11.279 21.704 A 133.341 133.341 0 0 0 10.474 24.327 A 152.092 152.092 0 0 0 10.205 25.244 L 20.898 18.604 Q 22.211 18.964 23.953 19.689 A 50.985 50.985 0 0 1 25.757 20.483 A 32.17 32.17 0 0 1 29.417 22.486 A 39.871 39.871 0 0 1 31.641 23.999 Q 34.619 26.172 37.231 29.126 A 20.158 20.158 0 0 1 41.162 35.791 L 32.324 39.404 A 28.425 28.425 0 0 0 29.887 35.647 A 22.849 22.849 0 0 0 27.734 33.228 Q 25.146 30.713 22.412 29.126 A 24.527 24.527 0 0 0 19.367 27.619 A 19.677 19.677 0 0 0 17.041 26.831 Q 14.404 26.123 12.305 26.123 A 14.484 14.484 0 0 0 10.254 26.27 L 10.205 26.27 Q 10.01 28.076 9.937 32.007 A 330.562 330.562 0 0 0 9.904 34.111 Q 9.869 37.002 9.864 40.817 A 975.482 975.482 0 0 0 9.863 42.09 L 9.863 43.799 Q 9.863 57.52 11.914 67.529 L 12.305 69.287 Q 10.4 69.531 8.545 70.02 A 30.193 30.193 0 0 0 5.885 70.848 A 26.638 26.638 0 0 0 5.054 71.167 Q 3.418 71.826 2.1 72.51 Q 0.781 73.193 0 73.779 A 326.803 326.803 0 0 0 0.812 66.742 A 240.09 240.09 0 0 0 1.392 60.376 Q 1.855 54.346 1.855 49.463 Q 1.855 45.508 1.782 42.065 A 164.571 164.571 0 0 0 1.614 37.294 A 140.885 140.885 0 0 0 1.514 35.522 A 130.024 130.024 0 0 0 1.078 30.265 A 117.095 117.095 0 0 0 1.001 29.541 A 149.63 149.63 0 0 0 0.244 23.73 Z M 77.1 67.041 L 65.967 73.975 A 21.95 21.95 0 0 1 63.631 73.238 Q 61.543 72.459 59.033 71.143 A 32.864 32.864 0 0 1 51.709 65.82 A 26.253 26.253 0 0 1 48.059 61.487 A 21.004 21.004 0 0 1 45.703 56.787 Q 43.604 51.807 43.604 46.533 L 43.604 46.338 A 25.226 25.226 0 0 1 44.634 39.333 A 32.107 32.107 0 0 1 45.996 35.547 A 27.87 27.87 0 0 1 48.619 30.735 A 23.318 23.318 0 0 1 50.83 27.979 A 22.337 22.337 0 0 1 53.76 25.342 L 64.111 18.555 A 16.229 16.229 0 0 1 65.445 18.979 Q 66.945 19.52 69.015 20.506 A 83.329 83.329 0 0 1 71.094 21.533 Q 73.963 23.009 77.143 25.724 A 50.631 50.631 0 0 1 78.369 26.807 Q 82.715 31.006 84.473 36.133 Q 86.409 41.556 86.474 46.211 A 23.221 23.221 0 0 1 86.475 46.289 L 86.475 46.484 A 34.395 34.395 0 0 1 86.243 50.607 Q 85.77 54.52 84.326 57.178 Q 81.862 61.708 79.989 63.978 A 11.866 11.866 0 0 1 78.76 65.283 A 19.388 19.388 0 0 0 78.198 65.796 Q 77.429 66.528 77.1 67.041 Z M 129.688 67.041 L 118.555 73.975 A 21.95 21.95 0 0 1 116.219 73.238 Q 114.131 72.459 111.621 71.143 A 32.864 32.864 0 0 1 104.297 65.82 A 26.253 26.253 0 0 1 100.647 61.487 A 21.004 21.004 0 0 1 98.291 56.787 Q 96.191 51.807 96.191 46.533 L 96.191 46.338 A 25.226 25.226 0 0 1 97.222 39.333 A 32.107 32.107 0 0 1 98.584 35.547 A 27.87 27.87 0 0 1 101.207 30.735 A 23.318 23.318 0 0 1 103.418 27.979 A 22.337 22.337 0 0 1 106.348 25.342 L 116.699 18.555 A 16.229 16.229 0 0 1 118.033 18.979 Q 119.533 19.52 121.603 20.506 A 83.329 83.329 0 0 1 123.682 21.533 Q 126.551 23.009 129.731 25.724 A 50.631 50.631 0 0 1 130.957 26.807 Q 135.303 31.006 137.061 36.133 Q 138.997 41.556 139.062 46.211 A 23.221 23.221 0 0 1 139.063 46.289 L 139.063 46.484 A 34.395 34.395 0 0 1 138.831 50.607 Q 138.358 54.52 136.914 57.178 Q 134.45 61.708 132.577 63.978 A 11.866 11.866 0 0 1 131.348 65.283 A 19.388 19.388 0 0 0 130.786 65.796 Q 130.017 66.528 129.688 67.041 Z M 54.053 25.732 L 54.004 25.781 A 17.915 17.915 0 0 0 53.215 27.49 Q 52.147 30.114 50.977 34.619 A 37.338 37.338 0 0 0 50.098 38.916 A 28.65 28.65 0 0 0 49.805 42.92 Q 49.805 44.434 50.049 46.094 A 18.661 18.661 0 0 0 51.497 50.957 A 25.881 25.881 0 0 0 53.662 54.834 A 19.541 19.541 0 0 0 61.755 61.75 A 23.371 23.371 0 0 0 62.109 61.914 A 43.219 43.219 0 0 0 65.677 63.334 Q 70.068 64.88 76.514 66.357 L 76.563 66.309 A 19.829 19.829 0 0 0 77.176 64.716 Q 78.093 62.042 79.236 57.117 A 182.267 182.267 0 0 0 79.346 56.641 Q 80.322 52.393 80.322 48.926 A 24.065 24.065 0 0 0 80.276 47.386 Q 80.227 46.626 80.127 45.958 A 13.674 13.674 0 0 0 80.078 45.654 A 20.57 20.57 0 0 0 78.574 40.774 A 27.874 27.874 0 0 0 76.465 36.914 A 14.637 14.637 0 0 0 74.295 34.342 Q 71.928 32.072 68.018 29.883 Q 63.459 27.325 54.913 25.874 A 88.203 88.203 0 0 0 54.053 25.732 Z M 106.641 25.732 L 106.592 25.781 A 17.915 17.915 0 0 0 105.803 27.49 Q 104.735 30.114 103.564 34.619 A 37.338 37.338 0 0 0 102.686 38.916 A 28.65 28.65 0 0 0 102.393 42.92 Q 102.393 44.434 102.637 46.094 A 18.661 18.661 0 0 0 104.085 50.957 A 25.881 25.881 0 0 0 106.25 54.834 A 19.541 19.541 0 0 0 114.343 61.75 A 23.371 23.371 0 0 0 114.697 61.914 A 43.219 43.219 0 0 0 118.265 63.334 Q 122.656 64.88 129.102 66.357 L 129.15 66.309 A 19.829 19.829 0 0 0 129.764 64.716 Q 130.681 62.042 131.824 57.117 A 182.267 182.267 0 0 0 131.934 56.641 Q 132.91 52.393 132.91 48.926 A 24.065 24.065 0 0 0 132.863 47.386 Q 132.815 46.626 132.715 45.958 A 13.674 13.674 0 0 0 132.666 45.654 A 20.57 20.57 0 0 0 131.162 40.774 A 27.874 27.874 0 0 0 129.053 36.914 A 14.637 14.637 0 0 0 126.883 34.342 Q 124.516 32.072 120.605 29.883 Q 116.047 27.325 107.501 25.874 A 88.203 88.203 0 0 0 106.641 25.732 Z" vector-effect="non-scaling-stroke"/></g></svg>